<mxfile host="app.diagrams.net" modified="2023-03-29T05:53:23.877Z" agent="Mozilla/5.0 (Windows NT 10.0; Win64; x64) AppleWebKit/537.36 (KHTML, like Gecko) Chrome/111.0.0.0 Safari/537.36" etag="1e1m-nmWN2JdZ2x93HmB" version="21.1.1" type="github">
  <diagram name="第 1 页" id="QHH_X7q2ztNWC-sLg0Y3">
    <mxGraphModel dx="3086" dy="1902" grid="1" gridSize="10" guides="1" tooltips="1" connect="1" arrows="1" fold="1" page="1" pageScale="1" pageWidth="827" pageHeight="1169" math="0" shadow="0">
      <root>
        <mxCell id="0" />
        <mxCell id="1" parent="0" />
        <mxCell id="dh0dQZZecO0bPqkRILVr-67" value="start" style="html=1;verticalAlign=bottom;startArrow=circle;startFill=1;endArrow=open;startSize=6;endSize=8;edgeStyle=elbowEdgeStyle;elbow=vertical;curved=0;rounded=0;entryX=0.5;entryY=0;entryDx=0;entryDy=0;" parent="1" target="dh0dQZZecO0bPqkRILVr-68" edge="1">
          <mxGeometry y="20" width="80" relative="1" as="geometry">
            <mxPoint x="-930" y="-160" as="sourcePoint" />
            <mxPoint x="-930" y="-70" as="targetPoint" />
            <mxPoint as="offset" />
          </mxGeometry>
        </mxCell>
        <mxCell id="dh0dQZZecO0bPqkRILVr-74" style="edgeStyle=orthogonalEdgeStyle;rounded=0;orthogonalLoop=1;jettySize=auto;html=1;exitX=0.5;exitY=1;exitDx=0;exitDy=0;" parent="1" source="dh0dQZZecO0bPqkRILVr-68" target="dh0dQZZecO0bPqkRILVr-69" edge="1">
          <mxGeometry relative="1" as="geometry" />
        </mxCell>
        <mxCell id="dh0dQZZecO0bPqkRILVr-87" style="edgeStyle=orthogonalEdgeStyle;rounded=0;orthogonalLoop=1;jettySize=auto;html=1;exitX=1;exitY=1;exitDx=0;exitDy=0;entryX=0;entryY=0;entryDx=0;entryDy=0;" parent="1" source="dh0dQZZecO0bPqkRILVr-68" target="dh0dQZZecO0bPqkRILVr-71" edge="1">
          <mxGeometry relative="1" as="geometry" />
        </mxCell>
        <mxCell id="dh0dQZZecO0bPqkRILVr-98" value="find failed" style="edgeLabel;html=1;align=center;verticalAlign=middle;resizable=0;points=[];" parent="dh0dQZZecO0bPqkRILVr-87" vertex="1" connectable="0">
          <mxGeometry x="-0.2" y="1" relative="1" as="geometry">
            <mxPoint x="10" y="-4" as="offset" />
          </mxGeometry>
        </mxCell>
        <mxCell id="dh0dQZZecO0bPqkRILVr-68" value="SeedSelect" style="rounded=1;whiteSpace=wrap;html=1;fillColor=#dae8fc;strokeColor=#6c8ebf;" parent="1" vertex="1">
          <mxGeometry x="-990" y="-80" width="120" height="60" as="geometry" />
        </mxCell>
        <mxCell id="dh0dQZZecO0bPqkRILVr-75" style="edgeStyle=orthogonalEdgeStyle;rounded=0;orthogonalLoop=1;jettySize=auto;html=1;" parent="1" source="dh0dQZZecO0bPqkRILVr-69" target="dh0dQZZecO0bPqkRILVr-71" edge="1">
          <mxGeometry relative="1" as="geometry" />
        </mxCell>
        <mxCell id="dh0dQZZecO0bPqkRILVr-101" value="pull failed&amp;nbsp;" style="edgeLabel;html=1;align=center;verticalAlign=middle;resizable=0;points=[];" parent="dh0dQZZecO0bPqkRILVr-75" vertex="1" connectable="0">
          <mxGeometry x="-0.2727" y="-1" relative="1" as="geometry">
            <mxPoint x="13" y="9" as="offset" />
          </mxGeometry>
        </mxCell>
        <mxCell id="dh0dQZZecO0bPqkRILVr-78" style="edgeStyle=orthogonalEdgeStyle;rounded=0;orthogonalLoop=1;jettySize=auto;html=1;exitX=0.5;exitY=1;exitDx=0;exitDy=0;" parent="1" source="dh0dQZZecO0bPqkRILVr-69" target="dh0dQZZecO0bPqkRILVr-70" edge="1">
          <mxGeometry relative="1" as="geometry" />
        </mxCell>
        <mxCell id="dh0dQZZecO0bPqkRILVr-69" value="SeedPulling" style="rounded=1;whiteSpace=wrap;html=1;fillColor=#dae8fc;strokeColor=#6c8ebf;" parent="1" vertex="1">
          <mxGeometry x="-990" y="50" width="120" height="60" as="geometry" />
        </mxCell>
        <mxCell id="dh0dQZZecO0bPqkRILVr-79" style="edgeStyle=orthogonalEdgeStyle;rounded=0;orthogonalLoop=1;jettySize=auto;html=1;exitX=0.5;exitY=1;exitDx=0;exitDy=0;" parent="1" source="dh0dQZZecO0bPqkRILVr-70" target="dh0dQZZecO0bPqkRILVr-72" edge="1">
          <mxGeometry relative="1" as="geometry" />
        </mxCell>
        <mxCell id="dh0dQZZecO0bPqkRILVr-89" style="edgeStyle=orthogonalEdgeStyle;rounded=0;orthogonalLoop=1;jettySize=auto;html=1;exitX=1;exitY=1;exitDx=0;exitDy=0;entryX=0;entryY=0;entryDx=0;entryDy=0;" parent="1" source="dh0dQZZecO0bPqkRILVr-70" target="dh0dQZZecO0bPqkRILVr-82" edge="1">
          <mxGeometry relative="1" as="geometry" />
        </mxCell>
        <mxCell id="dh0dQZZecO0bPqkRILVr-97" value="find failed" style="edgeLabel;html=1;align=center;verticalAlign=middle;resizable=0;points=[];" parent="dh0dQZZecO0bPqkRILVr-89" vertex="1" connectable="0">
          <mxGeometry x="-0.1429" y="-2" relative="1" as="geometry">
            <mxPoint x="5" y="-7" as="offset" />
          </mxGeometry>
        </mxCell>
        <mxCell id="dh0dQZZecO0bPqkRILVr-70" value="CandidatesSelect" style="rounded=1;whiteSpace=wrap;html=1;fillColor=#dae8fc;strokeColor=#6c8ebf;" parent="1" vertex="1">
          <mxGeometry x="-990" y="180" width="120" height="60" as="geometry" />
        </mxCell>
        <mxCell id="dh0dQZZecO0bPqkRILVr-76" style="edgeStyle=orthogonalEdgeStyle;rounded=0;orthogonalLoop=1;jettySize=auto;html=1;exitX=0.5;exitY=0;exitDx=0;exitDy=0;entryX=1;entryY=0.5;entryDx=0;entryDy=0;" parent="1" source="dh0dQZZecO0bPqkRILVr-71" target="dh0dQZZecO0bPqkRILVr-68" edge="1">
          <mxGeometry relative="1" as="geometry" />
        </mxCell>
        <mxCell id="dh0dQZZecO0bPqkRILVr-100" value="retry" style="edgeLabel;html=1;align=center;verticalAlign=middle;resizable=0;points=[];" parent="dh0dQZZecO0bPqkRILVr-76" vertex="1" connectable="0">
          <mxGeometry x="0.1565" y="-1" relative="1" as="geometry">
            <mxPoint as="offset" />
          </mxGeometry>
        </mxCell>
        <mxCell id="dh0dQZZecO0bPqkRILVr-71" value="SeedFailed&lt;br style=&quot;border-color: var(--border-color);&quot;&gt;" style="rounded=1;whiteSpace=wrap;html=1;fillColor=#f8cecc;strokeColor=#b85450;" parent="1" vertex="1">
          <mxGeometry x="-770" y="50" width="120" height="60" as="geometry" />
        </mxCell>
        <mxCell id="dh0dQZZecO0bPqkRILVr-84" style="edgeStyle=orthogonalEdgeStyle;rounded=0;orthogonalLoop=1;jettySize=auto;html=1;" parent="1" source="dh0dQZZecO0bPqkRILVr-72" target="dh0dQZZecO0bPqkRILVr-73" edge="1">
          <mxGeometry relative="1" as="geometry" />
        </mxCell>
        <mxCell id="dh0dQZZecO0bPqkRILVr-88" style="edgeStyle=orthogonalEdgeStyle;rounded=0;orthogonalLoop=1;jettySize=auto;html=1;exitX=1;exitY=0.5;exitDx=0;exitDy=0;entryX=0;entryY=0.5;entryDx=0;entryDy=0;" parent="1" source="dh0dQZZecO0bPqkRILVr-72" target="dh0dQZZecO0bPqkRILVr-82" edge="1">
          <mxGeometry relative="1" as="geometry" />
        </mxCell>
        <mxCell id="dh0dQZZecO0bPqkRILVr-102" value="pull failed&amp;nbsp;" style="edgeLabel;html=1;align=center;verticalAlign=middle;resizable=0;points=[];" parent="dh0dQZZecO0bPqkRILVr-88" vertex="1" connectable="0">
          <mxGeometry x="-0.22" y="-3" relative="1" as="geometry">
            <mxPoint x="4" y="7" as="offset" />
          </mxGeometry>
        </mxCell>
        <mxCell id="dh0dQZZecO0bPqkRILVr-72" value="CandidatesPulling" style="rounded=1;whiteSpace=wrap;html=1;fillColor=#dae8fc;strokeColor=#6c8ebf;" parent="1" vertex="1">
          <mxGeometry x="-990" y="310" width="120" height="60" as="geometry" />
        </mxCell>
        <mxCell id="dh0dQZZecO0bPqkRILVr-85" style="edgeStyle=orthogonalEdgeStyle;rounded=0;orthogonalLoop=1;jettySize=auto;html=1;exitX=0.5;exitY=1;exitDx=0;exitDy=0;" parent="1" source="dh0dQZZecO0bPqkRILVr-73" target="dh0dQZZecO0bPqkRILVr-80" edge="1">
          <mxGeometry relative="1" as="geometry" />
        </mxCell>
        <mxCell id="dh0dQZZecO0bPqkRILVr-92" style="edgeStyle=orthogonalEdgeStyle;rounded=0;orthogonalLoop=1;jettySize=auto;html=1;exitX=1;exitY=1;exitDx=0;exitDy=0;entryX=0;entryY=0;entryDx=0;entryDy=0;" parent="1" source="dh0dQZZecO0bPqkRILVr-73" target="dh0dQZZecO0bPqkRILVr-81" edge="1">
          <mxGeometry relative="1" as="geometry" />
        </mxCell>
        <mxCell id="dh0dQZZecO0bPqkRILVr-94" value="find failed" style="edgeLabel;html=1;align=center;verticalAlign=middle;resizable=0;points=[];" parent="dh0dQZZecO0bPqkRILVr-92" vertex="1" connectable="0">
          <mxGeometry x="-0.2769" y="1" relative="1" as="geometry">
            <mxPoint x="12" y="-9" as="offset" />
          </mxGeometry>
        </mxCell>
        <mxCell id="dh0dQZZecO0bPqkRILVr-73" value="EdgesSelect" style="rounded=1;whiteSpace=wrap;html=1;fillColor=#dae8fc;strokeColor=#6c8ebf;" parent="1" vertex="1">
          <mxGeometry x="-990" y="440" width="120" height="60" as="geometry" />
        </mxCell>
        <mxCell id="dh0dQZZecO0bPqkRILVr-86" style="edgeStyle=orthogonalEdgeStyle;rounded=0;orthogonalLoop=1;jettySize=auto;html=1;exitX=0.5;exitY=1;exitDx=0;exitDy=0;entryX=0.5;entryY=0;entryDx=0;entryDy=0;" parent="1" source="dh0dQZZecO0bPqkRILVr-80" target="dh0dQZZecO0bPqkRILVr-83" edge="1">
          <mxGeometry relative="1" as="geometry" />
        </mxCell>
        <mxCell id="dh0dQZZecO0bPqkRILVr-91" style="edgeStyle=orthogonalEdgeStyle;rounded=0;orthogonalLoop=1;jettySize=auto;html=1;" parent="1" source="dh0dQZZecO0bPqkRILVr-80" target="dh0dQZZecO0bPqkRILVr-81" edge="1">
          <mxGeometry relative="1" as="geometry" />
        </mxCell>
        <mxCell id="dh0dQZZecO0bPqkRILVr-103" value="pull failed&amp;nbsp;" style="edgeLabel;html=1;align=center;verticalAlign=middle;resizable=0;points=[];" parent="dh0dQZZecO0bPqkRILVr-91" vertex="1" connectable="0">
          <mxGeometry x="-0.3" relative="1" as="geometry">
            <mxPoint x="8" y="10" as="offset" />
          </mxGeometry>
        </mxCell>
        <mxCell id="dh0dQZZecO0bPqkRILVr-80" value="EdgesPulling" style="rounded=1;whiteSpace=wrap;html=1;fillColor=#dae8fc;strokeColor=#6c8ebf;" parent="1" vertex="1">
          <mxGeometry x="-990" y="560" width="120" height="60" as="geometry" />
        </mxCell>
        <mxCell id="dh0dQZZecO0bPqkRILVr-93" style="edgeStyle=orthogonalEdgeStyle;rounded=0;orthogonalLoop=1;jettySize=auto;html=1;exitX=0.5;exitY=0;exitDx=0;exitDy=0;entryX=1;entryY=0.5;entryDx=0;entryDy=0;" parent="1" source="dh0dQZZecO0bPqkRILVr-81" target="dh0dQZZecO0bPqkRILVr-73" edge="1">
          <mxGeometry relative="1" as="geometry" />
        </mxCell>
        <mxCell id="dh0dQZZecO0bPqkRILVr-95" value="retry" style="edgeLabel;html=1;align=center;verticalAlign=middle;resizable=0;points=[];" parent="dh0dQZZecO0bPqkRILVr-93" vertex="1" connectable="0">
          <mxGeometry x="0.0091" relative="1" as="geometry">
            <mxPoint as="offset" />
          </mxGeometry>
        </mxCell>
        <mxCell id="dh0dQZZecO0bPqkRILVr-81" value="EdgesFailed" style="rounded=1;whiteSpace=wrap;html=1;fillColor=#f8cecc;strokeColor=#b85450;" parent="1" vertex="1">
          <mxGeometry x="-770" y="560" width="120" height="60" as="geometry" />
        </mxCell>
        <mxCell id="dh0dQZZecO0bPqkRILVr-90" style="edgeStyle=orthogonalEdgeStyle;rounded=0;orthogonalLoop=1;jettySize=auto;html=1;exitX=0.5;exitY=0;exitDx=0;exitDy=0;entryX=1;entryY=0.5;entryDx=0;entryDy=0;" parent="1" source="dh0dQZZecO0bPqkRILVr-82" target="dh0dQZZecO0bPqkRILVr-70" edge="1">
          <mxGeometry relative="1" as="geometry" />
        </mxCell>
        <mxCell id="dh0dQZZecO0bPqkRILVr-99" value="retry" style="edgeLabel;html=1;align=center;verticalAlign=middle;resizable=0;points=[];" parent="dh0dQZZecO0bPqkRILVr-90" vertex="1" connectable="0">
          <mxGeometry x="0.0261" y="-1" relative="1" as="geometry">
            <mxPoint y="-9" as="offset" />
          </mxGeometry>
        </mxCell>
        <mxCell id="dh0dQZZecO0bPqkRILVr-82" value="CandidatesFailed&lt;br&gt;&lt;div style=&quot;border-color: var(--border-color);&quot;&gt;&lt;br style=&quot;border-color: var(--border-color);&quot;&gt;&lt;/div&gt;" style="rounded=1;whiteSpace=wrap;html=1;fillColor=#f8cecc;strokeColor=#b85450;" parent="1" vertex="1">
          <mxGeometry x="-770" y="310" width="120" height="60" as="geometry" />
        </mxCell>
        <mxCell id="dh0dQZZecO0bPqkRILVr-108" style="edgeStyle=orthogonalEdgeStyle;rounded=0;orthogonalLoop=1;jettySize=auto;html=1;exitX=0;exitY=0.5;exitDx=0;exitDy=0;entryX=0;entryY=0.5;entryDx=0;entryDy=0;" parent="1" source="dh0dQZZecO0bPqkRILVr-83" target="dh0dQZZecO0bPqkRILVr-68" edge="1">
          <mxGeometry relative="1" as="geometry">
            <Array as="points">
              <mxPoint x="-1070" y="710" />
              <mxPoint x="-1070" y="-50" />
            </Array>
          </mxGeometry>
        </mxCell>
        <mxCell id="dh0dQZZecO0bPqkRILVr-109" value="Missing replicas" style="edgeLabel;html=1;align=center;verticalAlign=middle;resizable=0;points=[];" parent="dh0dQZZecO0bPqkRILVr-108" vertex="1" connectable="0">
          <mxGeometry x="-0.8886" y="-1" relative="1" as="geometry">
            <mxPoint x="-9" y="11" as="offset" />
          </mxGeometry>
        </mxCell>
        <mxCell id="dh0dQZZecO0bPqkRILVr-83" value="Serving" style="rounded=1;whiteSpace=wrap;html=1;fillColor=#d5e8d4;strokeColor=#82b366;" parent="1" vertex="1">
          <mxGeometry x="-990" y="680" width="120" height="60" as="geometry" />
        </mxCell>
      </root>
    </mxGraphModel>
  </diagram>
</mxfile>
